<?xml version="1.0" encoding="utf-8"?>
<!-- Generator: Adobe Illustrator 24.2.0, SVG Export Plug-In . SVG Version: 6.00 Build 0)  -->
<svg version="1.1" id="Ebene_1" xmlns="http://www.w3.org/2000/svg" xmlns:xlink="http://www.w3.org/1999/xlink" x="0px" y="0px"
	 viewBox="0 0 283.5 283.5" style="enable-background:new 0 0 283.5 283.5;" xml:space="preserve">
<g>
	<path d="M31.8,220.8c0-52.7,0-105.4,0-158.1c0.1-0.4,0.3-0.8,0.4-1.2c2.5-12.2,12.5-20.6,25-20.6c56.3,0,112.6-0.1,169,0
		c14.5,0,25.5,11.2,25.5,25.7c0,50.1,0,100.2,0,150.3c0,2-0.2,4-0.6,6c-2.8,12-12.8,19.7-25.3,19.7c-28,0-56,0-83.9,0s-56,0-83.9,0
		c-10,0-17.8-4.3-22.8-13C33.5,226.9,32.8,223.7,31.8,220.8z M237.9,86.9c-64.3,0-128.3,0-192.4,0c0,0.6,0,1.1,0,1.6
		c0,42.8,0,85.6,0,128.4c0,0.9,0,1.7,0.2,2.6c1.2,5.9,5.8,9.3,12.6,9.3c55.5,0,110.9,0,166.4,0c8.7,0,13.2-4.5,13.2-13.2
		c0-42,0-84,0-126C237.9,88.7,237.9,87.9,237.9,86.9z M237.9,72.9c0-2.6,0.1-5,0-7.3c-0.2-3.6-1.8-6.6-4.7-8.7
		c-2.4-1.8-5.2-2.2-8.1-2.2c-55.5,0-111.1,0-166.6,0c-1.1,0-2.3,0.1-3.4,0.2c-4.1,0.7-7,3.1-8.7,6.9c-1.5,3.6-0.7,7.4-0.9,11.1
		C109.8,72.9,173.8,72.9,237.9,72.9z"/>
	<path d="M141.6,215.1c-12.5,0-25,0-37.6,0c-10.8,0-17.2-6.4-17.2-17.2c0-7,0-14,0-21c0-4.5,2.9-7.6,6.9-7.6c4,0,6.8,3.1,6.8,7.5
		c0,7,0,14,0,21c0,3.1,0.4,3.5,3.4,3.5c25.3,0,50.5,0,75.8,0c2.8,0,3.3-0.5,3.3-3.2c0-7.1,0-14.2,0-21.3c0-4.6,2.8-7.7,6.9-7.6
		c4.1,0,6.8,3.1,6.8,7.7c0,7.2,0,14.5,0,21.7c0,9.7-6.6,16.4-16.3,16.4C167.5,215.1,154.5,215.1,141.6,215.1z"/>
	<path d="M134.9,155.6c0-0.7,0-1.4,0-2.2c0-13.7,0-27.3,0-41c0-4.3,2.8-7.2,6.8-7.3c4.1,0,6.9,3,6.9,7.4c0,13.6,0,27.2,0,40.8
		c0,0.8,0,1.6,0,2.9c1.9-1.6,3.5-3,5-4.4c1.4-1.2,2.8-2.5,4.2-3.7c3-2.5,7.1-2.3,9.6,0.5c2.6,2.9,2.4,7-0.6,9.8
		c-5.5,5-11.1,9.9-16.7,14.9c-1.2,1-2.3,2.1-3.5,3.2c-3.1,2.7-6.8,2.7-9.9,0c-6.6-5.9-13.2-11.8-19.9-17.7c-3.2-2.9-3.6-6.9-1-9.9
		c2.6-3,6.8-3.2,10.1-0.4c2.8,2.4,5.6,4.9,8.4,7.4C134.5,155.8,134.6,155.7,134.9,155.6z"/>
</g>
</svg>
