<?xml version="1.0" encoding="utf-8"?>
<!-- Generator: Adobe Illustrator 24.2.0, SVG Export Plug-In . SVG Version: 6.00 Build 0)  -->
<svg version="1.1" id="Ebene_1" xmlns="http://www.w3.org/2000/svg" xmlns:xlink="http://www.w3.org/1999/xlink" x="0px" y="0px"
	 viewBox="0 0 283.5 283.5" style="enable-background:new 0 0 283.5 283.5;" xml:space="preserve">
<path d="M83.2,130.9c0-6,0.2-11.2,0-16.5c-0.3-7.6-5-13.1-12.5-15c-2.4-0.6-4.9-1.1-7.2-1.9c-6.6-2.3-10.8-6.5-11.3-14
	c-0.4-6.7,1.3-12.3,7.3-15.7c5.8-3.4,12.2-2.5,18.3-0.7c4.4,1.3,8.6,3.6,13,5.2c1.2,0.4,3.2,0.7,3.8,0c3.7-3.9,7.2-8,10.6-12.2
	c3.3-4.1,0.3-7.5-1.9-10.6c-4-5.6-4.4-11.2-1.3-17.3c5.9-11.4,21-12.6,28.5-2.2c12.9,17.6,13.2,32.8,1,51.8
	c-3.6,5.7-7.4,11.3-10.7,17.1c-6.4,11.2-4.1,22.7,1.2,33.2c5.1,10,12.2,19,18.9,29.3c3.7-6.1,6.3-11.2,9.7-15.6
	c4.5-5.9,9.5-11.5,14.7-16.8c4.6-4.7,6.7-9.8,3.6-15.7c-6.9-13.2-4.3-25.4,2.9-37.4c8.7-14.6,20.8-25.1,37.2-30.1
	c6.5-2,12.9-2.5,19,1.4c9.4,6,10.1,19.7,0.9,25.8c-5,3.3-10.8,5.6-16.5,7.8c-6.3,2.4-13.6,12.2-12.9,18.7c0.1,1.1,1.7,2.5,2.9,2.8
	c5.1,1.1,10.4,1.5,15.4,3c3.4,1,4.5,0,5.1-3c1.2-7,4.8-12,11.9-14.2c9.3-3,19.8,2.9,20.6,12.6c1.2,15.4-4.7,28-17.4,37
	c-7.1,5.1-15,3.6-22.8,1.3c-1.5-0.5-3.1-1-4.6-1.5c-8.8-2.6-9.4-2.2-14.4,5.4c-2.9,4.3-6.6,8.2-10.1,12
	c-16.7,17.7-24.9,38.9-25.5,63c-0.3,12.4,0,24.9-0.1,37.3c0,6.1-1.7,7.8-7.8,7.8c-6.9,0.1-13.7,0.1-20.6,0c-5.6-0.1-7.3-1.7-7.4-7.4
	c-0.1-12-0.3-24-0.2-36c0.1-8.7-1.5-16.9-5.7-24.4c-5.5-9.9-11.2-19.8-17.1-29.6c-0.9-1.4-3.5-2.8-5.2-2.6
	c-10.7,0.8-21.3-0.4-31.8-2.2c-5.8-1-11.6-1.9-17.6,0.6c-5.5,2.2-10.8-0.5-14.8-4.4c-4.2-4.1-5-9.5-3.8-15.1
	c2.1-9.3,9-12.5,19.6-14.8c9.1-2,17.6,0.6,26.3,2.6C77,130.2,79.7,130.4,83.2,130.9z"/>
</svg>
