<?xml version="1.0" encoding="utf-8"?>
<!-- Generator: Adobe Illustrator 24.2.0, SVG Export Plug-In . SVG Version: 6.00 Build 0)  -->
<svg version="1.1" id="Ebene_1" xmlns="http://www.w3.org/2000/svg" xmlns:xlink="http://www.w3.org/1999/xlink" x="0px" y="0px"
	 viewBox="0 0 283.5 283.5" style="enable-background:new 0 0 283.5 283.5;" xml:space="preserve">
<path d="M207.2,74.4c-8.7,9.8-17.1,19.9-26.3,29.3c-13.1,13.4-29.8,21.5-46.2,29.9c-22,11.2-41.9,25.3-58.8,43.4
	c-3.3,3.5-6.3,7.1-10.6,11.9c-1-9.3-2.4-17.4-2.8-25.6c-0.8-16.8,2.1-32.9,10.4-47.8c9.4-16.7,23.5-27.5,41.5-32.9
	c12.3-3.7,24.9-6.7,37.5-9c17.9-3.3,33.5-11.5,48.4-21.5c5-3.4,9.7-7.2,14.7-10.6c2.3-1.6,4.9-2.7,8.4-4.7
	c1.2,5.8,2.7,10.6,3.2,15.5c3.5,32.1,3.4,64.1-4.4,95.7c-4.8,19.6-17.2,34.2-32.3,46.6c-21.7,17.7-47,22.9-74.3,20.2
	c-4.9-0.5-9.8-1.3-14.6-2.2c-3.1-0.6-4.9,0.2-6.4,3.1c-4.3,8.3-9,16.4-13.4,24.7c-4.6,8.7-14,11.1-22.2,5.6c-3.5-2.3-5-5.8-3.9-9.5
	c2.2-6.9,4.4-14,7.8-20.3c16.6-30.3,41.4-52.4,71-69.5c14.3-8.2,29.3-15.2,41.7-26.6c13.9-12.7,24-27.9,30.7-45.3
	c0.1-0.4,0.1-0.8,0.1-1.3C206.7,73.9,206.9,74.1,207.2,74.4z"/>
</svg>
